<?xml version="1.0" standalone="no"?>
<!DOCTYPE svg PUBLIC "-//W3C//DTD SVG 20010904//EN"
 "http://www.w3.org/TR/2001/REC-SVG-20010904/DTD/svg10.dtd">
<svg version="1.0" xmlns="http://www.w3.org/2000/svg"
 width="256.000000pt" height="256.000000pt" viewBox="0 0 256.000000 256.000000"
 preserveAspectRatio="xMidYMid meet">

<g transform="translate(0.000000,256.000000) scale(0.100000,-0.100000)"
fill="#000000" stroke="none"></g>
<path d="M1049 2226 c-2 -2 -62 -7 -134 -11 -71 -4 -133 -10 -138 -14 -7 -7 76 -85 115 -106 12 -7 49 -8 103 -3 176 15 231 16 280 3 28 -8 167 -68 309 -134 142 -67 263 -121 269 -121 26 0 -33 36 -338 206 l-320 179 -71 2 c-40 1 -73 0 -75 -1z"/>
<path d="M650 2165 c0 -52 25 -99 76 -140 50 -41 80 -38 41 4 -35 38 -50 70 -57 121 -4 40 -8 45 -32 48 -26 3 -28 1 -28 -33z"/>
<path d="M1090 2051 c-15 -4 -26 -15 -28 -28 -4 -28 34 -103 53 -103 17 0 79 116 70 130 -7 11 -57 12 -95 1z"/>
<path d="M1267 2040 c-30 -72 -157 -448 -157 -465 0 -28 132 -226 144 -215 2 3 8 39 11 80 l7 75 -40 50 c-21 28 -42 59 -46 71 -4 12 15 96 44 205 28 101 49 191 47 199 -3 13 -5 13 -10 0z"/>
<path d="M1325 2018 c-11 -30 -55 -264 -55 -292 0 -40 35 -175 49 -189 7 -7 14 -2 21 17 6 16 9 33 8 40 -2 16 12 324 18 369 5 37 -8 67 -28 67 -5 0 -11 -6 -13 -12z"/>
<path d="M841 1996 c-23 -28 -3 -54 52 -70 75 -22 93 -46 127 -171 29 -108 35 -123 46 -113 5 6 -10 201 -22 276 -7 44 -37 69 -92 76 -26 4 -59 9 -73 12 -16 3 -31 -1 -38 -10z"/>
<path d="M729 1923 c-131 -167 -129 -162 -86 -210 26 -29 35 -29 69 4 33 31 36 63 8 88 -11 10 -20 22 -20 27 0 5 18 36 41 69 54 80 45 96 -12 22z"/>
<path d="M1513 1908 c-24 -5 -47 -17 -52 -26 -5 -9 -41 -143 -81 -297 -40 -154 -75 -286 -77 -292 -3 -7 1 -13 8 -13 13 0 274 595 274 623 0 16 -21 17 -72 5z"/>
<path d="M920 1812 c0 -43 -5 -75 -14 -88 -8 -11 -49 -30 -96 -44 -45 -14 -82 -29 -82 -35 0 -5 12 -19 26 -30 24 -17 31 -18 73 -7 105 28 136 57 135 124 -1 51 -23 148 -34 148 -4 0 -8 -31 -8 -68z"/>
<path d="M1682 1808 c-86 -130 -343 -559 -340 -570 4 -11 34 31 251 348 55 80 105 144 116 147 11 2 43 -6 71 -19 59 -27 63 -24 58 52 -3 45 -6 50 -38 66 -60 29 -85 24 -118 -24z"/>
<path d="M553 1672 c-21 -3 -73 -54 -73 -71 0 -11 151 -118 185 -131 16 -6 41 -8 55 -5 38 9 310 137 310 145 0 4 -53 -8 -119 -27 -73 -22 -128 -33 -143 -30 -14 4 -56 31 -93 61 -72 57 -86 64 -122 58z"/>
<path d="M1735 1621 c-28 -6 -35 -19 -146 -281 -70 -164 -113 -279 -108 -284 13 -14 21 -3 77 104 27 52 91 173 141 269 50 95 91 180 91 187 0 15 -7 15 -55 5z"/>
<path d="M880 1494 c-85 -46 -165 -87 -178 -90 -37 -10 -63 3 -155 76 -49 38 -95 70 -102 70 -19 0 -65 -65 -65 -92 0 -29 5 -35 64 -82 80 -64 139 -75 211 -39 49 25 389 224 400 234 27 26 -36 -2 -175 -77z"/>
<path d="M1457 1300 c-37 -55 -67 -106 -67 -114 0 -23 45 -70 61 -64 13 5 89 234 89 267 0 27 -21 4 -83 -89z"/>
<path d="M1951 1042 c-26 -21 -92 -233 -93 -302 -1 -55 25 -113 63 -140 36 -26 212 -90 247 -90 39 0 94 32 115 67 9 17 28 87 42 156 26 132 25 157 -11 188 -19 15 -314 139 -332 139 -5 0 -20 -8 -31 -18z m114 -227 c17 -55 33 -95 37 -90 3 6 18 47 33 93 27 83 43 102 84 102 20 0 21 -5 21 -124 0 -99 -3 -126 -15 -136 -28 -23 -37 2 -33 94 2 47 1 86 -2 86 -3 0 -18 -38 -33 -84 -47 -143 -74 -141 -122 10 l-32 99 2 -85 c2 -94 -7 -130 -30 -130 -13 0 -15 19 -15 123 0 132 6 150 49 145 22 -3 28 -14 56 -103z"/>
<path d="M243 933 c-10 -3 -13 -36 -13 -119 0 -111 1 -114 29 -146 l29 -33 159 0 158 0 0 150 0 150 -25 -1 c-14 -1 -28 -2 -32 -3 -5 0 -8 -55 -8 -122 l0 -120 -42 3 -43 3 -5 119 c-4 104 -7 119 -23 122 -36 5 -46 -21 -45 -124 0 -53 -1 -103 -1 -109 -1 -7 -14 -13 -30 -13 -46 0 -57 25 -55 127 2 108 -8 132 -53 116z"/>
<path d="M667 932 c-12 -2 -17 -11 -15 -25 2 -17 11 -23 41 -25 33 -3 37 -6 37 -30 1 -15 2 -70 3 -122 l2 -95 30 0 30 0 3 123 3 122 40 0 c38 0 40 2 37 28 l-3 27 -95 1 c-52 0 -103 -1 -113 -4z"/>
<path d="M984 932 c-48 -7 -59 -36 -60 -155 -2 -138 1 -149 35 -145 24 3 26 7 29 54 l3 52 45 5 c28 3 55 13 70 28 21 20 24 31 22 73 -2 39 -8 53 -28 67 -25 18 -76 28 -116 21z m76 -67 c6 -8 10 -22 8 -32 -4 -21 -45 -44 -64 -36 -14 5 -20 64 -7 76 12 12 50 7 63 -8z"/>
<path d="M1196 933 c-3 -3 -6 -68 -6 -143 0 -144 5 -160 46 -160 26 0 51 30 114 138 23 39 45 72 49 72 3 0 6 -46 6 -102 l0 -103 28 -3 27 -3 0 145 c0 138 -1 146 -21 157 -36 19 -62 -3 -125 -107 l-59 -99 -5 104 c-5 96 -7 104 -26 107 -12 2 -24 1 -28 -3z"/>
<path d="M1523 924 c-3 -8 11 -39 31 -69 20 -30 36 -59 36 -65 0 -6 -18 -40 -41 -75 -42 -68 -43 -85 -4 -85 18 0 30 12 52 50 15 27 33 50 38 50 6 0 25 -23 43 -50 24 -37 38 -50 56 -50 40 0 39 16 -4 79 -22 33 -40 67 -40 76 0 9 16 41 36 72 38 60 39 81 2 79 -16 -1 -32 -15 -53 -48 -16 -26 -33 -48 -37 -48 -3 0 -17 19 -30 42 -25 46 -74 70 -85 42z"/>

</svg>
